<?xml version="1.0" encoding="utf-8"?>
<!-- Generator: Adobe Illustrator 16.0.4, SVG Export Plug-In . SVG Version: 6.00 Build 0)  -->
<!DOCTYPE svg PUBLIC "-//W3C//DTD SVG 1.1//EN" "http://www.w3.org/Graphics/SVG/1.1/DTD/svg11.dtd">
<svg version="1.1" id="Layer_1" xmlns="http://www.w3.org/2000/svg" xmlns:xlink="http://www.w3.org/1999/xlink" x="0px" y="0px"
	 width="48px" height="48px" viewBox="0 0 48 48" enable-background="new 0 0 48 48" xml:space="preserve">
<g>
	
		<linearGradient id="SVGID_1_" gradientUnits="userSpaceOnUse" x1="15.1299" y1="744.2441" x2="15.1298" y2="785.7578" gradientTransform="matrix(1 0 0 1 0 -741)">
		<stop  offset="0" style="stop-color:#5C70B5"/>
		<stop  offset="0.675" style="stop-color:#507DBF"/>
		<stop  offset="1" style="stop-color:#428BCA"/>
	</linearGradient>
	<path fill="url(#SVGID_1_)" d="M20.478,5.932c-0.835,0-1.493,0.406-1.968,1.228c-0.477,0.819-0.808,1.723-0.985,2.704l-1.655,8.095
		c-0.238,1.048-0.589,1.936-1.052,2.668c-0.466,0.728-0.947,1.328-1.453,1.787c-0.509,0.463-1.008,0.819-1.501,1.075
		c-0.491,0.252-0.877,0.41-1.141,0.474L10.68,24.09c0.209,0.035,0.475,0.124,0.805,0.271c0.327,0.146,0.647,0.393,0.963,0.737
		c0.313,0.342,0.581,0.774,0.807,1.297c0.222,0.523,0.334,1.188,0.334,1.989c0,0.271-0.029,0.536-0.09,0.806
		c-0.062,0.271-0.12,0.567-0.179,0.898l-1.655,8.053c-0.09,0.51-0.133,1.01-0.133,1.521c0,0.688,0.089,1.257,0.269,1.723
		c0.181,0.465,0.581,0.689,1.209,0.689h2.236l-0.581,2.684h-3.132c-0.45,0-0.902-0.089-1.365-0.269
		c-0.466-0.181-0.871-0.431-1.23-0.759c-0.361-0.322-0.647-0.744-0.873-1.252c-0.222-0.511-0.334-1.09-0.334-1.742
		c0-0.271,0.015-0.562,0.043-0.877c0.028-0.312,0.075-0.631,0.135-0.961l1.698-8.094c0.058-0.33,0.105-0.649,0.133-0.967
		c0.028-0.312,0.042-0.602,0.042-0.872c0-1.043-0.273-1.868-0.825-2.481c-0.551-0.61-1.218-0.92-1.99-0.92l0.67-3.041
		c0.475,0,0.963-0.125,1.453-0.379c0.491-0.253,0.956-0.6,1.386-1.05c0.431-0.447,0.822-0.997,1.166-1.654
		c0.342-0.659,0.604-1.387,0.782-2.193l1.698-8.146c0.179-0.953,0.492-1.793,0.938-2.528c0.447-0.728,0.955-1.341,1.521-1.831
		c0.564-0.492,1.162-0.867,1.791-1.118c0.626-0.253,1.223-0.381,1.786-0.381h3.134l-0.579,2.684h-2.234L20.478,5.932L20.478,5.932z"
		/>
	
		<linearGradient id="SVGID_2_" gradientUnits="userSpaceOnUse" x1="23.1509" y1="744.2402" x2="23.1509" y2="785.7587" gradientTransform="matrix(1 0 0 1 0 -741)">
		<stop  offset="0" style="stop-color:#5C70B5"/>
		<stop  offset="0.675" style="stop-color:#507DBF"/>
		<stop  offset="1" style="stop-color:#428BCA"/>
	</linearGradient>
	<path fill="url(#SVGID_2_)" d="M27.295,10.658L21.984,37.99h-2.977l5.305-27.332H27.295z"/>
	
		<linearGradient id="SVGID_3_" gradientUnits="userSpaceOnUse" x1="28.9717" y1="744.2393" x2="28.9717" y2="785.7623" gradientTransform="matrix(1 0 0 1 0 -741)">
		<stop  offset="0" style="stop-color:#5C70B5"/>
		<stop  offset="0.675" style="stop-color:#507DBF"/>
		<stop  offset="1" style="stop-color:#428BCA"/>
	</linearGradient>
	<path fill="url(#SVGID_3_)" d="M32.441,12.185l-4.811,24.273h-2.129l4.828-24.273H32.441L32.441,12.185z"/>
	
		<linearGradient id="SVGID_4_" gradientUnits="userSpaceOnUse" x1="34.3369" y1="744.2422" x2="34.3369" y2="785.7623" gradientTransform="matrix(1 0 0 1 0 -741)">
		<stop  offset="0" style="stop-color:#5C70B5"/>
		<stop  offset="0.675" style="stop-color:#507DBF"/>
		<stop  offset="1" style="stop-color:#428BCA"/>
	</linearGradient>
	<path fill="url(#SVGID_4_)" d="M37.207,13.328l-4.295,21.988h-1.445l4.301-21.988H37.207z"/>
	
		<linearGradient id="SVGID_5_" gradientUnits="userSpaceOnUse" x1="38.7314" y1="744.2402" x2="38.7314" y2="785.7598" gradientTransform="matrix(1 0 0 1 0 -741)">
		<stop  offset="0" style="stop-color:#5C70B5"/>
		<stop  offset="0.675" style="stop-color:#507DBF"/>
		<stop  offset="1" style="stop-color:#428BCA"/>
	</linearGradient>
	<path fill="url(#SVGID_5_)" d="M41.033,14.977l-3.797,18.692H36.43l3.781-18.692H41.033z"/>
</g>
</svg>
