<?xml version="1.0" encoding="utf-8"?>
<!-- Generator: Adobe Illustrator 16.0.0, SVG Export Plug-In . SVG Version: 6.00 Build 0)  -->
<!DOCTYPE svg PUBLIC "-//W3C//DTD SVG 1.1//EN" "http://www.w3.org/Graphics/SVG/1.1/DTD/svg11.dtd">
<svg version="1.1" id="Layer_1" xmlns="http://www.w3.org/2000/svg" xmlns:xlink="http://www.w3.org/1999/xlink" x="0px" y="0px"
	 width="202.059px" height="39.33px" viewBox="0 0 202.059 39.33" enable-background="new 0 0 202.059 39.33" xml:space="preserve">
<g>
	
		<linearGradient id="SVGID_1_" gradientUnits="userSpaceOnUse" x1="14.688" y1="738.7051" x2="14.688" y2="786.7089" gradientTransform="matrix(1 0 0 1 0 -742.8984)">
		<stop  offset="0" style="stop-color:#5C70B5"/>
		<stop  offset="0.675" style="stop-color:#507DBF"/>
		<stop  offset="1" style="stop-color:#428BCA"/>
	</linearGradient>
	<path fill="url(#SVGID_1_)" d="M15.143,14.166c-1.305,0-2.4,0.298-3.279,0.894c-0.886,0.596-1.608,1.362-2.162,2.302
		c-0.558,0.944-0.952,1.98-1.182,3.112c-0.229,1.137-0.344,2.252-0.344,3.371c0,1.068,0.115,2.166,0.344,3.275
		c0.229,1.121,0.605,2.129,1.123,3.029c0.523,0.904,1.222,1.641,2.102,2.217c0.884,0.577,1.959,0.862,3.23,0.862
		c1.954,0,3.462-0.548,4.521-1.64c1.053-1.099,1.718-2.564,1.988-4.407h7.892c-0.541,3.952-2.075,6.965-4.608,9.042
		c-2.538,2.071-5.78,3.106-9.738,3.106c-2.227,0-4.272-0.37-6.133-1.12c-1.864-0.745-3.451-1.795-4.753-3.142
		c-1.302-1.345-2.323-2.947-3.05-4.808C0.361,28.401,0,26.358,0,24.125c0-2.301,0.335-4.441,1.008-6.42
		c0.671-1.979,1.66-3.685,2.968-5.128c1.304-1.443,2.897-2.559,4.776-3.371c1.882-0.806,4.036-1.209,6.453-1.209
		c1.766,0,3.464,0.235,5.098,0.694c1.63,0.457,3.091,1.161,4.377,2.1c1.285,0.941,2.332,2.114,3.139,3.516
		c0.807,1.4,1.269,3.061,1.383,4.982h-8.007C20.653,15.875,18.638,14.166,15.143,14.166z"/>
	
		<linearGradient id="SVGID_2_" gradientUnits="userSpaceOnUse" x1="46.3359" y1="738.7061" x2="46.3359" y2="786.7098" gradientTransform="matrix(1 0 0 1 0 -742.8984)">
		<stop  offset="0" style="stop-color:#5C70B5"/>
		<stop  offset="0.675" style="stop-color:#507DBF"/>
		<stop  offset="1" style="stop-color:#428BCA"/>
	</linearGradient>
	<path fill="url(#SVGID_2_)" d="M40.864,31.187c0.361,0.637,0.834,1.152,1.411,1.556c0.574,0.403,1.238,0.704,1.988,0.896
		c0.748,0.188,1.525,0.281,2.332,0.281c0.577,0,1.182-0.062,1.813-0.201c0.636-0.131,1.21-0.343,1.73-0.633
		c0.52-0.286,0.952-0.671,1.296-1.153c0.347-0.474,0.518-1.078,0.518-1.814c0-1.228-0.815-2.146-2.449-2.761
		c-1.631-0.614-3.907-1.233-6.825-1.847c-1.19-0.265-2.353-0.587-3.485-0.948c-1.134-0.365-2.143-0.849-3.023-1.443
		c-0.884-0.596-1.594-1.341-2.133-2.245c-0.539-0.901-0.807-2.005-0.807-3.312c0-1.918,0.374-3.495,1.123-4.722
		c0.75-1.229,1.74-2.198,2.968-2.911c1.228-0.708,2.609-1.209,4.148-1.496c1.536-0.291,3.11-0.438,4.723-0.438
		c1.611,0,3.178,0.155,4.695,0.461c1.517,0.308,2.871,0.827,4.059,1.555s2.178,1.697,2.964,2.906
		c0.788,1.208,1.259,2.739,1.413,4.58h-7.776c-0.114-1.574-0.712-2.64-1.783-3.197c-1.076-0.553-2.347-0.834-3.802-0.834
		c-0.462,0-0.961,0.027-1.498,0.083c-0.541,0.061-1.031,0.183-1.47,0.375c-0.44,0.191-0.815,0.473-1.123,0.836
		s-0.462,0.855-0.462,1.47c0,0.729,0.27,1.324,0.806,1.787c0.539,0.457,1.242,0.834,2.102,1.121c0.865,0.292,1.854,0.55,2.967,0.778
		c1.114,0.229,2.248,0.483,3.399,0.748c1.19,0.266,2.35,0.597,3.484,0.981c1.132,0.38,2.141,0.891,3.024,1.521
		c0.883,0.64,1.594,1.427,2.132,2.358c0.539,0.947,0.807,2.11,0.807,3.488c0,1.959-0.396,3.6-1.182,4.927
		c-0.785,1.327-1.814,2.387-3.08,3.197c-1.269,0.807-2.718,1.369-4.35,1.701c-1.631,0.323-3.293,0.482-4.981,0.482
		c-1.729,0-3.419-0.168-5.067-0.516c-1.653-0.349-3.121-0.924-4.407-1.729c-1.287-0.807-2.346-1.87-3.169-3.196
		c-0.825-1.322-1.277-2.986-1.352-4.983h7.774C40.313,29.799,40.499,30.554,40.864,31.187z"/>
	
		<linearGradient id="SVGID_3_" gradientUnits="userSpaceOnUse" x1="77.269" y1="738.7061" x2="77.269" y2="786.7098" gradientTransform="matrix(1 0 0 1 0 -742.8984)">
		<stop  offset="0" style="stop-color:#5C70B5"/>
		<stop  offset="0.675" style="stop-color:#507DBF"/>
		<stop  offset="1" style="stop-color:#428BCA"/>
	</linearGradient>
	<path fill="url(#SVGID_3_)" d="M71.794,31.187c0.361,0.637,0.834,1.152,1.411,1.556s1.238,0.704,1.987,0.896
		c0.748,0.188,1.525,0.281,2.332,0.281c0.577,0,1.182-0.062,1.814-0.201c0.638-0.131,1.209-0.343,1.732-0.633
		c0.518-0.286,0.949-0.671,1.296-1.153c0.344-0.474,0.518-1.078,0.518-1.814c0-1.228-0.815-2.146-2.452-2.761
		c-1.631-0.614-3.907-1.233-6.825-1.847c-1.19-0.265-2.353-0.587-3.484-0.948c-1.133-0.365-2.141-0.849-3.024-1.443
		c-0.884-0.596-1.594-1.341-2.13-2.245c-0.541-0.901-0.807-2.005-0.807-3.312c0-1.918,0.37-3.495,1.123-4.722
		c0.748-1.229,1.737-2.198,2.965-2.911c1.23-0.708,2.611-1.209,4.148-1.496c1.535-0.291,3.111-0.438,4.722-0.438
		c1.612,0,3.179,0.155,4.695,0.461c1.516,0.308,2.871,0.827,4.062,1.555c1.188,0.728,2.177,1.697,2.962,2.906
		c0.788,1.208,1.259,2.739,1.413,4.58h-7.774c-0.115-1.574-0.712-2.64-1.787-3.197c-1.075-0.553-2.346-0.834-3.801-0.834
		c-0.462,0-0.961,0.027-1.498,0.083c-0.539,0.061-1.029,0.183-1.47,0.375c-0.438,0.191-0.816,0.473-1.123,0.836
		c-0.308,0.363-0.461,0.855-0.461,1.47c0,0.729,0.269,1.324,0.806,1.787c0.541,0.457,1.243,0.834,2.103,1.121
		c0.866,0.292,1.855,0.55,2.967,0.778c1.114,0.229,2.25,0.483,3.399,0.748c1.19,0.266,2.353,0.597,3.484,0.981
		c1.132,0.38,2.141,0.891,3.024,1.521c0.883,0.64,1.593,1.427,2.135,2.358c0.537,0.947,0.807,2.11,0.807,3.488
		c0,1.959-0.396,3.6-1.182,4.927c-0.788,1.327-1.814,2.387-3.082,3.197c-1.269,0.807-2.717,1.369-4.35,1.701
		c-1.632,0.323-3.293,0.482-4.979,0.482c-1.731,0-3.422-0.168-5.069-0.516c-1.653-0.349-3.12-0.924-4.407-1.729
		c-1.288-0.807-2.346-1.87-3.169-3.196c-0.825-1.322-1.277-2.986-1.35-4.983h7.772C71.245,29.799,71.427,30.554,71.794,31.187z"/>
	
		<linearGradient id="SVGID_4_" gradientUnits="userSpaceOnUse" x1="107.0146" y1="738.7041" x2="107.0146" y2="786.7097" gradientTransform="matrix(1 0 0 1 0 -742.8984)">
		<stop  offset="0" style="stop-color:#5C70B5"/>
		<stop  offset="0.675" style="stop-color:#507DBF"/>
		<stop  offset="1" style="stop-color:#428BCA"/>
	</linearGradient>
	<path fill="url(#SVGID_4_)" d="M103.443,8.809l-0.922,4.495h0.115c1.23-1.729,2.784-3.023,4.666-3.886
		c1.881-0.867,3.858-1.299,5.932-1.299c2.805,0,4.887,0.614,6.252,1.844c1.359,1.231,2.043,3.168,2.043,5.821
		c0,0.651-0.077,1.496-0.229,2.532c-0.154,1.038-0.365,2.135-0.638,3.286l-3.629,16.991h-4.896l3.801-17.396
		c0.041-0.31,0.097-0.665,0.174-1.067c0.074-0.404,0.152-0.826,0.229-1.264c0.08-0.438,0.148-0.865,0.202-1.269
		c0.06-0.402,0.086-0.739,0.086-1.007c0-1.42-0.499-2.467-1.497-3.139c-0.998-0.673-2.226-1.009-3.686-1.009
		c-1.344,0-2.678,0.327-4.004,0.979c-1.325,0.65-2.447,1.476-3.368,2.474c-0.884,0.77-1.575,1.702-2.072,2.795
		c-0.499,1.096-0.901,2.234-1.209,3.425l-3.457,16.478H92.5l6.22-29.779h4.721L103.443,8.809L103.443,8.809z"/>
	
		<linearGradient id="SVGID_5_" gradientUnits="userSpaceOnUse" x1="139.3008" y1="738.7051" x2="139.3008" y2="786.7097" gradientTransform="matrix(1 0 0 1 0 -742.8984)">
		<stop  offset="0" style="stop-color:#5C70B5"/>
		<stop  offset="0.675" style="stop-color:#507DBF"/>
		<stop  offset="1" style="stop-color:#428BCA"/>
	</linearGradient>
	<path fill="url(#SVGID_5_)" d="M130.23,27.761c0,1.146,0.211,2.179,0.633,3.084c0.424,0.898,0.998,1.649,1.729,2.246
		c0.729,0.595,1.555,1.054,2.477,1.383c0.922,0.323,1.881,0.487,2.879,0.487c2.188,0,3.992-0.487,5.414-1.467
		c1.423-0.979,2.478-2.392,3.168-4.232h4.896c-0.384,1.647-1,3.098-1.844,4.344c-0.847,1.252-1.863,2.288-3.052,3.113
		c-1.189,0.83-2.518,1.448-3.975,1.871c-1.459,0.421-2.994,0.638-4.607,0.638c-2.456,0-4.504-0.376-6.135-1.125
		c-1.633-0.749-2.93-1.706-3.888-2.878c-0.961-1.171-1.634-2.456-2.016-3.863c-0.384-1.396-0.577-2.751-0.577-4.059
		c0-2.843,0.413-5.443,1.24-7.806c0.826-2.359,1.939-4.387,3.342-6.073c1.398-1.693,3.031-2.995,4.896-3.919
		c1.857-0.92,3.809-1.385,5.846-1.385c4.378,0,7.574,1.153,9.59,3.46c2.018,2.303,3.023,5.545,3.023,9.729
		c0,0.769-0.054,1.5-0.17,2.188c-0.115,0.693-0.211,1.251-0.287,1.673h-22.408C130.289,26.016,130.23,26.877,130.23,27.761z
		 M148.174,17.767c-0.21-1.018-0.595-1.919-1.148-2.707c-0.557-0.788-1.297-1.42-2.221-1.903c-0.921-0.478-2.054-0.716-3.4-0.716
		c-1.418,0-2.695,0.221-3.826,0.659c-1.135,0.439-2.125,1.048-2.969,1.814c-0.844,0.77-1.555,1.662-2.131,2.682
		c-0.578,1.018-1.039,2.1-1.385,3.253h17.281C148.451,19.81,148.385,18.783,148.174,17.767z"/>
	
		<linearGradient id="SVGID_6_" gradientUnits="userSpaceOnUse" x1="168.0459" y1="738.707" x2="168.0459" y2="786.7089" gradientTransform="matrix(1 0 0 1 0 -742.8984)">
		<stop  offset="0" style="stop-color:#5C70B5"/>
		<stop  offset="0.675" style="stop-color:#507DBF"/>
		<stop  offset="1" style="stop-color:#428BCA"/>
	</linearGradient>
	<path fill="url(#SVGID_6_)" d="M159.204,8.809h5.646l4.493,10.833l8.868-10.833h5.936l-12.789,14.398l7.604,15.382h-5.586
		l-5.416-12.212l-10.14,12.212h-5.875l13.882-15.784L159.204,8.809z"/>
	
		<linearGradient id="SVGID_7_" gradientUnits="userSpaceOnUse" x1="193.6748" y1="738.7041" x2="193.6748" y2="786.7086" gradientTransform="matrix(1 0 0 1 0 -742.8984)">
		<stop  offset="0" style="stop-color:#5C70B5"/>
		<stop  offset="0.675" style="stop-color:#507DBF"/>
		<stop  offset="1" style="stop-color:#428BCA"/>
	</linearGradient>
	<path fill="url(#SVGID_7_)" d="M202.059,8.809l-0.927,4.322H195.2l-3.687,17.512c-0.039,0.347-0.078,0.67-0.115,0.979
		c-0.039,0.306-0.061,0.632-0.061,0.976c0,0.769,0.299,1.298,0.895,1.584c0.596,0.291,1.277,0.437,2.05,0.437
		c0.499,0,0.977-0.053,1.438-0.146c0.461-0.1,0.92-0.222,1.381-0.375l-0.863,4.491c-0.574,0.079-1.148,0.146-1.727,0.201
		c-0.58,0.061-1.15,0.088-1.729,0.088c-0.921,0-1.785-0.068-2.593-0.2c-0.807-0.137-1.506-0.385-2.104-0.75
		c-0.595-0.361-1.076-0.854-1.438-1.468c-0.365-0.612-0.553-1.4-0.553-2.361c0-0.422,0.028-0.825,0.088-1.209
		c0.057-0.384,0.125-0.807,0.201-1.267l3.918-18.491h-5.012l0.922-4.317h5.012L193.07,0h4.896l-1.848,8.813h5.938V8.809H202.059z"/>
</g>
</svg>
