<?xml version="1.0" encoding="utf-8"?>
<!-- Generator: Adobe Illustrator 16.0.0, SVG Export Plug-In . SVG Version: 6.00 Build 0)  -->
<!DOCTYPE svg PUBLIC "-//W3C//DTD SVG 1.1//EN" "http://www.w3.org/Graphics/SVG/1.1/DTD/svg11.dtd">
<svg version="1.1" id="cssnext" xmlns="http://www.w3.org/2000/svg" xmlns:xlink="http://www.w3.org/1999/xlink" x="0px" y="0px"
	 width="512px" height="145px" viewBox="0 0 512 145" enable-background="new 0 0 512 145" xml:space="preserve">
<g enable-background="new    ">
	<path d="M23.407,119.514c-1.235-2.15-1.852-5.494-1.852-10.033V90.132c0-4.854-0.558-8.938-1.672-12.241
		c-1.116-3.304-3.424-6.109-6.927-8.42v-2.389c1.353-0.239,2.547-0.956,3.583-2.15c1.034-1.194,1.93-2.705,2.688-4.538
		c0.756-1.831,1.333-3.9,1.731-6.211c0.397-2.308,0.597-4.657,0.597-7.046V27.429c0-4.538,0.616-7.842,1.852-9.913
		c1.233-2.069,3.523-3.105,6.867-3.105h5.972V16.8h-5.733c-2.389,0-4.081,0.896-5.076,2.688c-0.997,1.792-1.493,5.156-1.493,10.092
		v19.588c0,1.752-0.16,3.624-0.478,5.613c-0.319,1.991-0.836,3.902-1.553,5.732c-0.716,1.833-1.612,3.464-2.687,4.897
		c-1.075,1.433-2.37,2.469-3.882,3.104c2.627,1.275,4.718,3.724,6.271,7.345c1.553,3.625,2.329,7.703,2.329,12.242v19.229
		c0,2.628,0.138,4.796,0.418,6.51c0.278,1.711,0.675,3.045,1.194,4.001c0.517,0.955,1.194,1.612,2.03,1.971
		c0.836,0.357,1.81,0.537,2.926,0.537h5.733v2.39h-5.972C26.93,122.736,24.64,121.662,23.407,119.514z"/>
</g>
<g enable-background="new    ">
	<path d="M87.482,48.568c-2.788-2.627-6.688-3.941-11.705-3.941c-3.583,0-6.729,0.758-9.435,2.27
		c-2.708,1.514-4.957,3.505-6.748,5.972c-1.792,2.469-3.146,5.275-4.061,8.42c-0.916,3.146-1.374,6.351-1.374,9.614
		c0,3.267,0.458,6.471,1.374,9.615c0.915,3.146,2.27,5.953,4.061,8.42c1.792,2.47,4.04,4.461,6.748,5.973
		c2.706,1.514,5.852,2.27,9.435,2.27c2.309,0,4.498-0.438,6.569-1.313c2.07-0.875,3.9-2.091,5.494-3.644
		c1.592-1.553,2.906-3.402,3.941-5.554c1.034-2.149,1.672-4.497,1.911-7.047h7.524c-1.036,7.485-3.783,13.317-8.241,17.497
		c-4.46,4.181-10.193,6.271-17.199,6.271c-4.699,0-8.858-0.856-12.481-2.567c-3.624-1.712-6.669-4.04-9.137-6.987
		c-2.469-2.943-4.34-6.391-5.613-10.331c-1.274-3.94-1.911-8.14-1.911-12.601c0-4.458,0.637-8.658,1.911-12.6
		c1.273-3.941,3.145-7.385,5.613-10.331c2.467-2.945,5.513-5.295,9.137-7.047c3.623-1.75,7.782-2.628,12.481-2.628
		c6.608,0,12.201,1.753,16.781,5.256c4.578,3.504,7.304,8.799,8.181,15.885h-7.524C92.179,54.82,90.268,51.196,87.482,48.568z"/>
	<path d="M147.199,52.092c-0.877-1.711-2.051-3.124-3.523-4.24c-1.474-1.113-3.165-1.929-5.076-2.448
		c-1.911-0.517-3.941-0.776-6.091-0.776c-1.672,0-3.365,0.18-5.076,0.538c-1.713,0.358-3.284,0.955-4.718,1.791
		c-1.433,0.836-2.588,1.932-3.463,3.284c-0.877,1.355-1.314,3.027-1.314,5.017c0,1.672,0.418,3.087,1.254,4.24
		c0.836,1.155,1.89,2.131,3.165,2.926c1.272,0.797,2.667,1.454,4.18,1.971c1.511,0.519,2.905,0.937,4.18,1.254l10.032,2.27
		c2.15,0.319,4.279,0.896,6.39,1.731c2.109,0.836,3.98,1.932,5.614,3.285c1.631,1.354,2.965,3.026,4.001,5.016
		c1.034,1.99,1.553,4.341,1.553,7.047c0,3.344-0.758,6.191-2.27,8.539c-1.513,2.35-3.445,4.261-5.792,5.732
		c-2.35,1.475-4.998,2.526-7.942,3.166c-2.947,0.635-5.852,0.955-8.719,0.955c-7.246,0-13.119-1.711-17.617-5.137
		c-4.499-3.422-7.067-8.916-7.703-16.48h7.524c0.317,5.097,2.168,8.938,5.553,11.524c3.384,2.588,7.584,3.882,12.601,3.882
		c1.831,0,3.721-0.197,5.673-0.598c1.95-0.396,3.762-1.075,5.435-2.03c1.672-0.954,3.045-2.169,4.121-3.643
		c1.075-1.474,1.612-3.284,1.612-5.435c0-1.832-0.379-3.363-1.135-4.599c-0.758-1.233-1.773-2.271-3.045-3.104
		c-1.275-0.836-2.729-1.532-4.359-2.092c-1.633-0.556-3.285-1.033-4.957-1.433l-9.674-2.15c-2.469-0.636-4.738-1.373-6.808-2.209
		c-2.072-0.836-3.882-1.87-5.435-3.105c-1.552-1.233-2.767-2.747-3.643-4.538c-0.877-1.792-1.314-4.001-1.314-6.629
		c0-3.105,0.696-5.772,2.09-8.002c1.392-2.229,3.204-4.02,5.434-5.375c2.229-1.353,4.718-2.348,7.465-2.985
		c2.747-0.637,5.474-0.956,8.181-0.956c3.105,0,5.99,0.399,8.659,1.194c2.667,0.797,5.016,2.03,7.046,3.703
		c2.03,1.672,3.643,3.743,4.837,6.21c1.194,2.47,1.87,5.375,2.03,8.719h-7.524C148.552,55.814,148.074,53.805,147.199,52.092z"/>
	<path d="M204.646,52.092c-0.877-1.711-2.051-3.124-3.523-4.24c-1.474-1.113-3.165-1.929-5.076-2.448
		c-1.911-0.517-3.941-0.776-6.091-0.776c-1.672,0-3.365,0.18-5.076,0.538c-1.713,0.358-3.284,0.955-4.718,1.791
		c-1.433,0.836-2.588,1.932-3.463,3.284c-0.877,1.355-1.314,3.027-1.314,5.017c0,1.672,0.418,3.087,1.254,4.24
		c0.836,1.155,1.89,2.131,3.165,2.926c1.272,0.797,2.667,1.454,4.18,1.971c1.511,0.519,2.905,0.937,4.18,1.254l10.032,2.27
		c2.15,0.319,4.279,0.896,6.39,1.731c2.109,0.836,3.98,1.932,5.614,3.285c1.631,1.354,2.965,3.026,4.001,5.016
		c1.034,1.99,1.553,4.341,1.553,7.047c0,3.344-0.758,6.191-2.27,8.539c-1.513,2.35-3.445,4.261-5.792,5.732
		c-2.35,1.475-4.998,2.526-7.942,3.166c-2.947,0.635-5.852,0.955-8.719,0.955c-7.246,0-13.119-1.711-17.617-5.137
		c-4.499-3.422-7.067-8.916-7.703-16.48h7.524c0.317,5.097,2.168,8.938,5.553,11.524c3.384,2.588,7.584,3.882,12.601,3.882
		c1.831,0,3.721-0.197,5.673-0.598c1.95-0.396,3.762-1.075,5.435-2.03c1.672-0.954,3.045-2.169,4.121-3.643
		c1.075-1.474,1.612-3.284,1.612-5.435c0-1.832-0.379-3.363-1.135-4.599c-0.758-1.233-1.773-2.271-3.045-3.104
		c-1.275-0.836-2.729-1.532-4.359-2.092c-1.633-0.556-3.285-1.033-4.957-1.433l-9.674-2.15c-2.469-0.636-4.738-1.373-6.808-2.209
		c-2.072-0.836-3.882-1.87-5.435-3.105c-1.552-1.233-2.767-2.747-3.643-4.538c-0.877-1.792-1.314-4.001-1.314-6.629
		c0-3.105,0.696-5.772,2.09-8.002c1.392-2.229,3.204-4.02,5.434-5.375c2.229-1.353,4.718-2.348,7.465-2.985
		c2.747-0.637,5.474-0.956,8.181-0.956c3.105,0,5.99,0.399,8.659,1.194c2.667,0.797,5.016,2.03,7.046,3.703
		c2.03,1.672,3.643,3.743,4.837,6.21c1.194,2.47,1.87,5.375,2.03,8.719h-7.524C205.999,55.814,205.521,53.805,204.646,52.092z"/>
</g>
<g enable-background="new    ">
	<path d="M234.862,40.327h2.389v11.705h-2.389V40.327z M234.862,90.014h2.389v11.703h-2.389V90.014z"/>
</g>
<g enable-background="new    ">
	<path d="M271.527,40.089l-2.15,11.227h0.238c2.309-3.661,5.395-6.748,9.257-9.256c3.86-2.508,8.101-3.763,12.72-3.763
		c2.706,0,5.195,0.319,7.465,0.956c2.271,0.638,4.24,1.612,5.912,2.926s2.965,3.027,3.881,5.136c0.916,2.11,1.375,4.64,1.375,7.584
		c0,1.672-0.32,4.102-0.957,7.285l-8.479,39.533h-7.523l8.6-39.771c0.238-0.956,0.438-1.971,0.598-3.046
		c0.158-1.074,0.238-2.129,0.238-3.165c0-2.069-0.358-3.801-1.075-5.195c-0.716-1.392-1.672-2.526-2.866-3.403
		c-1.193-0.876-2.568-1.512-4.121-1.911c-1.552-0.397-3.164-0.598-4.836-0.598c-2.709,0-5.336,0.598-7.883,1.792
		c-2.549,1.194-4.896,2.887-7.047,5.076c-2.15,2.19-4.021,4.857-5.613,8.002c-1.594,3.146-2.787,6.669-3.583,10.569l-6.808,31.65
		h-7.405L264.6,40.089H271.527z"/>
	<path d="M325.986,77.711c0,2.788,0.359,5.374,1.076,7.764c0.717,2.389,1.811,4.438,3.283,6.15c1.473,1.713,3.346,3.064,5.613,4.061
		c2.27,0.996,4.915,1.494,7.941,1.494c5.018,0,9.275-1.414,12.779-4.24c3.504-2.825,5.973-6.51,7.405-11.049h7.524
		c-2.071,7.008-5.416,12.344-10.033,16.004c-4.618,3.664-10.629,5.494-18.033,5.494c-8.203,0-14.434-2.309-18.691-6.927
		c-4.262-4.616-6.391-10.987-6.391-19.108c0-4.938,0.734-9.734,2.21-14.394c1.472-4.657,3.644-8.817,6.509-12.48
		c2.867-3.661,6.369-6.608,10.51-8.838c4.141-2.229,8.84-3.345,14.095-3.345c3.741,0,7.047,0.579,9.913,1.732
		c2.865,1.155,5.314,2.788,7.345,4.896c2.031,2.11,3.562,4.64,4.599,7.584c1.034,2.947,1.553,6.211,1.553,9.794
		c0,1.752-0.041,3.505-0.119,5.255c-0.08,1.752-0.238,3.544-0.477,5.375h-48.252C326.107,74.366,325.986,75.96,325.986,77.711z
		 M367.609,64.154c0.039-0.755,0.061-1.531,0.061-2.328c0-5.256-1.492-9.436-4.479-12.541c-2.987-3.105-7.106-4.658-12.361-4.658
		c-3.105,0-5.953,0.618-8.54,1.852c-2.589,1.235-4.896,2.866-6.927,4.896s-3.723,4.359-5.076,6.987
		c-1.355,2.627-2.35,5.374-2.986,8.241h40.25C367.551,65.728,367.568,64.912,367.609,64.154z"/>
	<path d="M386.779,40.089h8.6l11.228,24.245l21.259-24.245h9.077L409.83,69.947l16.362,31.77h-8.601l-13.138-26.873l-23.647,26.873
		h-8.839L401.23,69.23L386.779,40.089z"/>
	<path d="M450.318,40.089l3.94-18.632h7.523l-3.941,18.632h12.303l-1.194,6.33h-12.541l-8.479,39.532
		c-0.319,1.434-0.538,2.529-0.657,3.285c-0.119,0.757-0.179,1.611-0.179,2.566c0,1.116,0.298,2.11,0.896,2.986
		c0.598,0.877,1.612,1.312,3.046,1.312c2.943,0,5.892-0.238,8.839-0.717l-1.314,6.449c-1.273,0.159-2.549,0.277-3.821,0.357
		c-1.273,0.078-2.55,0.121-3.821,0.121c-1.433,0-2.827-0.103-4.181-0.299c-1.354-0.201-2.567-0.617-3.644-1.255
		c-1.074-0.637-1.932-1.532-2.567-2.688c-0.639-1.152-0.955-2.646-0.955-4.479c0-0.637,0.061-1.512,0.18-2.628
		c0.119-1.114,0.338-2.348,0.656-3.702l8.479-40.847h-11.106l1.434-6.33h11.106V40.089z"/>
</g>
<g enable-background="new    ">
	<path d="M488.595,17.635c1.233,2.15,1.853,5.494,1.853,10.033v19.468c0,4.857,0.556,8.957,1.672,12.302
		c1.114,3.344,3.423,6.132,6.927,8.36v2.389c-1.272,0.238-2.447,0.955-3.522,2.149c-1.074,1.193-1.99,2.708-2.746,4.538
		c-0.759,1.833-1.334,3.901-1.732,6.211c-0.398,2.312-0.597,4.658-0.597,7.047v19.587c0,4.539-0.618,7.842-1.853,9.913
		c-1.234,2.069-3.521,3.104-6.867,3.104h-5.972v-2.389h5.732c2.389,0,4.08-0.896,5.076-2.688c0.993-1.791,1.492-5.156,1.492-10.092
		V88.102c0-1.75,0.159-3.621,0.479-5.612c0.316-1.989,0.836-3.9,1.553-5.733c0.717-1.83,1.612-3.464,2.688-4.896
		c1.073-1.434,2.367-2.467,3.881-3.105c-2.627-1.272-4.717-3.721-6.271-7.345c-1.553-3.623-2.329-7.704-2.329-12.242V29.817
		c0-2.628-0.14-4.796-0.418-6.509c-0.279-1.712-0.678-3.046-1.193-4.001c-0.521-0.956-1.194-1.612-2.031-1.971
		c-0.836-0.358-1.812-0.538-2.926-0.538h-5.732V14.41h5.973C485.072,14.41,487.359,15.485,488.595,17.635z"/>
</g>
</svg>
