<?xml version="1.0" encoding="utf-8"?>
<!-- Generator: Adobe Illustrator 16.0.4, SVG Export Plug-In . SVG Version: 6.00 Build 0)  -->
<!DOCTYPE svg PUBLIC "-//W3C//DTD SVG 1.1//EN" "http://www.w3.org/Graphics/SVG/1.1/DTD/svg11.dtd">
<svg version="1.1" id="Layer_1" xmlns="http://www.w3.org/2000/svg" xmlns:xlink="http://www.w3.org/1999/xlink" x="0px" y="0px"
	 width="48px" height="48px" viewBox="0 0 48 48" enable-background="new 0 0 48 48" xml:space="preserve">
<circle fill="#FFFFFF" cx="24" cy="24" r="24"/>
<linearGradient id="SVGID_1_" gradientUnits="userSpaceOnUse" x1="168.2402" y1="-1580.8452" x2="168.2402" y2="-1617.1528" gradientTransform="matrix(1 0 0 -1 -150 -1575)">
	<stop  offset="0" style="stop-color:#5C70B5"/>
	<stop  offset="0.675" style="stop-color:#507DBF"/>
	<stop  offset="1" style="stop-color:#428BCA"/>
</linearGradient>
<path fill="url(#SVGID_1_)" d="M22.92,8.2c-0.73,0-1.306,0.355-1.72,1.074c-0.418,0.716-0.707,1.506-0.862,2.364l-1.448,7.08
	c-0.208,0.915-0.515,1.692-0.92,2.332c-0.407,0.637-0.827,1.162-1.27,1.562c-0.445,0.405-0.88,0.716-1.313,0.94
	c-0.43,0.22-0.767,0.358-0.998,0.414l-0.04,0.11c0.184,0.032,0.417,0.11,0.705,0.238c0.286,0.127,0.566,0.344,0.843,0.645
	c0.273,0.298,0.508,0.676,0.705,1.133c0.194,0.458,0.292,1.04,0.292,1.74c0,0.236-0.026,0.47-0.08,0.704
	c-0.053,0.237-0.104,0.497-0.156,0.786l-1.448,7.042c-0.08,0.444-0.116,0.883-0.116,1.329c0,0.603,0.078,1.101,0.235,1.507
	c0.16,0.407,0.51,0.604,1.058,0.604h1.956l-0.508,2.348h-2.74c-0.392,0-0.788-0.078-1.193-0.234
	c-0.407-0.158-0.762-0.377-1.075-0.664c-0.315-0.281-0.566-0.65-0.764-1.095c-0.194-0.45-0.292-0.953-0.292-1.525
	c0-0.235,0.013-0.489,0.038-0.766c0.024-0.274,0.066-0.554,0.118-0.843l1.485-7.076c0.05-0.288,0.09-0.567,0.117-0.848
	c0.024-0.272,0.036-0.527,0.036-0.763c0-0.912-0.24-1.632-0.722-2.17c-0.482-0.532-1.065-0.803-1.74-0.803l0.586-2.66
	c0.415,0,0.842-0.11,1.27-0.333c0.43-0.22,0.837-0.524,1.213-0.918c0.377-0.39,0.72-0.87,1.02-1.446
	c0.3-0.576,0.53-1.213,0.684-1.917l1.485-7.124c0.157-0.835,0.43-1.57,0.82-2.21c0.39-0.638,0.835-1.174,1.33-1.602
	c0.493-0.43,1.016-0.76,1.566-0.979c0.547-0.22,1.07-0.333,1.562-0.333h2.74l-0.505,2.347H22.92V8.2z"/>
<linearGradient id="SVGID_2_" gradientUnits="userSpaceOnUse" x1="175.2559" y1="-1580.8447" x2="175.2559" y2="-1617.1538" gradientTransform="matrix(1 0 0 -1 -150 -1575)">
	<stop  offset="0" style="stop-color:#5C70B5"/>
	<stop  offset="0.675" style="stop-color:#507DBF"/>
	<stop  offset="1" style="stop-color:#428BCA"/>
</linearGradient>
<path fill="url(#SVGID_2_)" d="M28.88,12.333l-4.644,23.901h-2.603l4.641-23.901H28.88L28.88,12.333z"/>
<linearGradient id="SVGID_3_" gradientUnits="userSpaceOnUse" x1="180.3467" y1="-1580.8447" x2="180.3467" y2="-1617.1577" gradientTransform="matrix(1 0 0 -1 -150 -1575)">
	<stop  offset="0" style="stop-color:#5C70B5"/>
	<stop  offset="0.675" style="stop-color:#507DBF"/>
	<stop  offset="1" style="stop-color:#428BCA"/>
</linearGradient>
<path fill="url(#SVGID_3_)" d="M33.383,13.668l-4.208,21.227h-1.862l4.223-21.227H33.383z"/>
<linearGradient id="SVGID_4_" gradientUnits="userSpaceOnUse" x1="185.0391" y1="-1580.8457" x2="185.0391" y2="-1617.1598" gradientTransform="matrix(1 0 0 -1 -150 -1575)">
	<stop  offset="0" style="stop-color:#5C70B5"/>
	<stop  offset="0.675" style="stop-color:#507DBF"/>
	<stop  offset="1" style="stop-color:#428BCA"/>
</linearGradient>
<path fill="url(#SVGID_4_)" d="M37.55,14.667l-3.756,19.229h-1.265l3.761-19.229H37.55z"/>
<linearGradient id="SVGID_5_" gradientUnits="userSpaceOnUse" x1="188.8828" y1="-1580.8442" x2="188.8828" y2="-1617.1554" gradientTransform="matrix(1 0 0 -1 -150 -1575)">
	<stop  offset="0" style="stop-color:#5C70B5"/>
	<stop  offset="0.675" style="stop-color:#507DBF"/>
	<stop  offset="1" style="stop-color:#428BCA"/>
</linearGradient>
<path fill="url(#SVGID_5_)" d="M40.896,16.11l-3.32,16.345H36.87l3.307-16.346L40.896,16.11L40.896,16.11z"/>
</svg>
