<?xml version="1.0" encoding="utf-8"?>
<!-- Generator: Adobe Illustrator 16.0.0, SVG Export Plug-In . SVG Version: 6.00 Build 0)  -->
<!DOCTYPE svg PUBLIC "-//W3C//DTD SVG 1.1//EN" "http://www.w3.org/Graphics/SVG/1.1/DTD/svg11.dtd">
<svg version="1.1" id="cssnext" xmlns="http://www.w3.org/2000/svg" xmlns:xlink="http://www.w3.org/1999/xlink" x="0px" y="0px"
	 width="512px" height="512px" viewBox="0 -183.5 512 512" enable-background="new 0 -183.5 512 512" xml:space="preserve">
<g enable-background="new    ">
	<path d="M452.335-82.045c3.572,6.226,5.361,15.912,5.361,29.056V3.392c0,14.068,1.61,25.942,4.843,35.627
		c3.227,9.685,9.912,17.76,20.062,24.212v6.918c-3.691,0.692-7.091,2.768-10.203,6.227c-3.113,3.459-5.768,7.842-7.956,13.145
		c-2.194,5.307-3.864,11.301-5.016,17.986c-1.156,6.69-1.729,13.49-1.729,20.408v56.727c0,13.145-1.789,22.711-5.361,28.71
		c-3.578,5.994-10.204,8.993-19.889,8.993h-17.295v-6.918h16.603c6.918,0,11.814-2.594,14.701-7.782
		c2.88-5.188,4.323-14.934,4.323-29.229v-56.382c0-5.069,0.46-10.49,1.384-16.257c0.919-5.762,2.421-11.296,4.496-16.604
		c2.076-5.302,4.67-10.03,7.783-14.182c3.113-4.15,6.858-7.145,11.241-8.993c-7.609-3.686-13.662-10.777-18.159-21.273
		c-4.497-10.49-6.745-22.31-6.745-35.454v-56.036c0-7.61-0.405-13.89-1.211-18.852c-0.811-4.956-1.962-8.82-3.459-11.587
		c-1.502-2.767-3.459-4.669-5.88-5.708c-2.421-1.038-5.248-1.556-8.475-1.556h-16.603v-6.918h17.295
		C442.131-91.384,448.757-88.271,452.335-82.045z"/>
</g>
<g enable-background="new    ">
	<path d="M59.667,210.092c-3.578-6.226-5.361-15.911-5.361-29.055v-56.035c0-14.062-1.616-25.883-4.843-35.454
		c-3.232-9.566-9.917-17.695-20.062-24.386v-6.918c3.918-0.692,7.377-2.767,10.377-6.226c2.994-3.459,5.588-7.837,7.783-13.144
		c2.189-5.302,3.859-11.296,5.016-17.986c1.151-6.686,1.729-13.49,1.729-20.408v-57.073c0-13.144,1.783-22.71,5.361-28.709
		c3.572-5.994,10.204-8.993,19.889-8.993h17.295v6.917H80.248c-6.918,0-11.82,2.594-14.7,7.783
		c-2.886,5.188-4.324,14.933-4.324,29.228V6.36c0,5.075-0.465,10.496-1.384,16.257c-0.924,5.767-2.421,11.301-4.497,16.603
		c-2.075,5.308-4.669,10.031-7.783,14.182c-3.113,4.151-6.864,7.15-11.242,8.993c7.61,3.691,13.663,10.782,18.16,21.272
		c4.497,10.496,6.745,22.311,6.745,35.455v55.688c0,7.61,0.4,13.89,1.21,18.852c0.805,4.956,1.957,8.82,3.459,11.588
		c1.497,2.767,3.459,4.669,5.88,5.707c2.421,1.037,5.242,1.557,8.474,1.557h16.603v6.918H79.556
		C69.871,219.432,63.24,216.318,59.667,210.092z"/>
</g>
<g enable-background="new    ">
	<path d="M178.864-37.946c-3.778-3.561-9.063-5.341-15.86-5.341c-4.855,0-9.119,1.027-12.786,3.075
		c-3.669,2.051-6.716,4.749-9.144,8.092c-2.428,3.346-4.264,7.149-5.503,11.41c-1.241,4.263-1.861,8.605-1.861,13.028
		c0,4.425,0.62,8.767,1.861,13.028c1.239,4.264,3.075,8.067,5.503,11.41c2.428,3.345,5.475,6.043,9.144,8.092
		c3.667,2.051,7.93,3.075,12.786,3.075c3.128,0,6.094-0.592,8.901-1.78c2.805-1.186,5.285-2.833,7.445-4.936
		c2.157-2.104,3.938-4.613,5.341-7.526c1.401-2.913,2.266-6.094,2.589-9.549h10.196c-1.404,10.143-5.126,18.045-11.167,23.71
		c-6.044,5.665-13.812,8.497-23.305,8.497c-6.368,0-12.004-1.161-16.913-3.479c-4.911-2.319-9.038-5.475-12.381-9.468
		c-3.346-3.99-5.882-8.658-7.606-13.999c-1.728-5.341-2.59-11.031-2.59-17.074c0-6.042,0.862-11.734,2.59-17.075
		c1.725-5.34,4.261-10.006,7.606-13.999c3.343-3.991,7.47-7.174,12.381-9.549c4.908-2.372,10.545-3.561,16.913-3.561
		c8.954,0,16.533,2.375,22.738,7.121c6.203,4.749,9.898,11.923,11.086,21.525h-10.196C185.229-29.474,182.64-34.385,178.864-37.946z
		"/>
	<path d="M259.784-33.171c-1.188-2.319-2.779-4.233-4.774-5.746c-1.998-1.509-4.289-2.615-6.878-3.317
		c-2.59-0.701-5.341-1.052-8.254-1.052c-2.266,0-4.56,0.243-6.878,0.729c-2.321,0.485-4.451,1.294-6.393,2.428
		c-1.942,1.133-3.508,2.617-4.693,4.45c-1.189,1.836-1.78,4.102-1.78,6.797c0,2.266,0.566,4.183,1.699,5.746
		c1.133,1.565,2.562,2.888,4.289,3.965c1.725,1.08,3.614,1.97,5.665,2.67c2.048,0.703,3.938,1.27,5.665,1.7l13.595,3.075
		c2.913,0.433,5.799,1.214,8.658,2.347c2.857,1.133,5.395,2.617,7.606,4.451c2.211,1.836,4.019,4.102,5.422,6.797
		c1.401,2.698,2.104,5.882,2.104,9.549c0,4.531-1.027,8.39-3.075,11.572c-2.051,3.184-4.668,5.773-7.85,7.768
		c-3.184,1.998-6.771,3.424-10.763,4.289c-3.993,0.862-7.93,1.294-11.814,1.294c-9.819,0-17.777-2.319-23.872-6.959
		c-6.097-4.638-9.577-12.083-10.439-22.334h10.196c0.43,6.906,2.938,12.113,7.526,15.618c4.584,3.507,10.277,5.26,17.074,5.26
		c2.481,0,5.042-0.268,7.688-0.809c2.642-0.539,5.098-1.457,7.364-2.751s4.127-2.938,5.584-4.936
		c1.456-1.996,2.185-4.451,2.185-7.364c0-2.481-0.514-4.557-1.538-6.231c-1.026-1.672-2.402-3.075-4.127-4.208
		c-1.727-1.133-3.696-2.076-5.907-2.832c-2.212-0.754-4.45-1.401-6.716-1.942l-13.109-2.913c-3.346-0.862-6.42-1.861-9.225-2.994
		c-2.807-1.133-5.26-2.534-7.364-4.208c-2.104-1.671-3.75-3.722-4.936-6.15c-1.188-2.427-1.78-5.421-1.78-8.982
		c0-4.208,0.943-7.822,2.833-10.844c1.886-3.019,4.342-5.447,7.364-7.283c3.019-1.833,6.393-3.181,10.115-4.046
		c3.723-0.862,7.417-1.295,11.086-1.295c4.208,0,8.117,0.542,11.733,1.619c3.614,1.08,6.798,2.751,9.549,5.017
		c2.752,2.266,4.937,5.073,6.555,8.416c1.618,3.346,2.534,7.283,2.752,11.814h-10.196C261.617-28.126,260.971-30.85,259.784-33.171z
		"/>
	<path d="M337.628-33.171c-1.188-2.319-2.779-4.233-4.774-5.746c-1.998-1.509-4.289-2.615-6.878-3.317
		c-2.59-0.701-5.341-1.052-8.254-1.052c-2.266,0-4.56,0.243-6.879,0.729c-2.321,0.485-4.45,1.294-6.393,2.428
		c-1.941,1.133-3.507,2.617-4.693,4.45c-1.188,1.836-1.78,4.102-1.78,6.797c0,2.266,0.566,4.183,1.699,5.746
		c1.133,1.565,2.562,2.888,4.289,3.965c1.725,1.08,3.613,1.97,5.665,2.67c2.048,0.703,3.937,1.27,5.664,1.7l13.595,3.075
		c2.913,0.433,5.799,1.214,8.658,2.347c2.857,1.133,5.395,2.617,7.606,4.451c2.211,1.836,4.019,4.102,5.422,6.797
		c1.401,2.698,2.104,5.882,2.104,9.549c0,4.531-1.027,8.39-3.075,11.572c-2.051,3.184-4.668,5.773-7.85,7.768
		c-3.184,1.998-6.771,3.424-10.763,4.289c-3.992,0.862-7.93,1.294-11.814,1.294c-9.819,0-17.777-2.319-23.871-6.959
		c-6.097-4.638-9.576-12.083-10.439-22.334h10.196c0.43,6.906,2.938,12.113,7.525,15.618c4.585,3.507,10.277,5.26,17.075,5.26
		c2.48,0,5.042-0.268,7.687-0.809c2.643-0.539,5.099-1.457,7.364-2.751s4.127-2.938,5.584-4.936
		c1.456-1.996,2.185-4.451,2.185-7.364c0-2.481-0.514-4.557-1.538-6.231c-1.026-1.672-2.402-3.075-4.127-4.208
		c-1.727-1.133-3.696-2.076-5.907-2.832c-2.212-0.754-4.45-1.401-6.716-1.942l-13.109-2.913c-3.346-0.862-6.421-1.861-9.225-2.994
		c-2.808-1.133-5.26-2.534-7.364-4.208c-2.104-1.671-3.75-3.722-4.936-6.15c-1.189-2.427-1.78-5.421-1.78-8.982
		c0-4.208,0.942-7.822,2.832-10.844c1.887-3.019,4.342-5.447,7.363-7.283c3.02-1.833,6.393-3.181,10.115-4.046
		c3.723-0.862,7.417-1.295,11.086-1.295c4.208,0,8.118,0.542,11.733,1.619c3.614,1.08,6.798,2.751,9.549,5.017
		c2.752,2.266,4.937,5.073,6.555,8.416c1.618,3.346,2.534,7.283,2.752,11.814H339.57C339.461-28.126,338.814-30.85,337.628-33.171z"
		/>
</g>
<g enable-background="new    ">
	<path d="M385.368-49.113h3.236v15.86h-3.236V-49.113z M385.368,18.213h3.236v15.86h-3.236V18.213z"/>
</g>
<g enable-background="new    ">
	<path d="M143.582,100.976l-2.913,15.213h0.324c3.128-4.962,7.308-9.145,12.543-12.543c5.232-3.398,10.977-5.098,17.236-5.098
		c3.667,0,7.04,0.432,10.115,1.294c3.075,0.865,5.745,2.186,8.011,3.966c2.266,1.78,4.018,4.102,5.26,6.959
		c1.239,2.86,1.861,6.286,1.861,10.277c0,2.266-0.433,5.558-1.295,9.872l-11.491,53.569h-10.196l11.653-53.894
		c0.324-1.294,0.592-2.67,0.809-4.127c0.215-1.456,0.324-2.885,0.324-4.288c0-2.805-0.485-5.151-1.457-7.04
		c-0.971-1.887-2.266-3.425-3.884-4.613c-1.618-1.186-3.479-2.048-5.583-2.589c-2.104-0.539-4.289-0.81-6.555-0.81
		c-3.669,0-7.229,0.81-10.681,2.428c-3.455,1.618-6.636,3.912-9.549,6.878c-2.913,2.969-5.45,6.583-7.606,10.844
		c-2.16,4.264-3.778,9.038-4.855,14.323l-9.225,42.888h-10.034l17.803-83.51H143.582z"/>
	<path d="M217.379,151.955c0,3.778,0.485,7.283,1.457,10.52c0.971,3.237,2.453,6.017,4.451,8.335
		c1.995,2.321,4.531,4.155,7.606,5.503c3.075,1.351,6.661,2.022,10.762,2.022c6.797,0,12.567-1.914,17.317-5.745
		c4.746-3.828,8.092-8.82,10.033-14.97h10.197c-2.807,9.495-7.34,16.725-13.596,21.687c-6.258,4.964-14.403,7.444-24.438,7.444
		c-11.114,0-19.558-3.128-25.328-9.387c-5.773-6.256-8.659-14.89-8.659-25.895c0-6.688,0.997-13.19,2.994-19.502
		c1.995-6.312,4.936-11.948,8.82-16.912c3.884-4.962,8.631-8.955,14.242-11.977c5.609-3.02,11.976-4.531,19.098-4.531
		c5.07,0,9.547,0.783,13.432,2.347c3.885,1.565,7.203,3.777,9.953,6.635c2.752,2.86,4.828,6.287,6.23,10.277
		c1.402,3.993,2.105,8.416,2.105,13.271c0,2.374-0.057,4.749-0.162,7.12c-0.109,2.375-0.324,4.803-0.648,7.283h-65.383
		C217.541,147.424,217.379,149.583,217.379,151.955z M273.781,133.586c0.053-1.023,0.08-2.076,0.08-3.155
		c0-7.121-2.021-12.786-6.068-16.994c-4.047-4.207-9.629-6.312-16.75-6.312c-4.208,0-8.067,0.837-11.572,2.509
		c-3.507,1.674-6.636,3.884-9.387,6.636c-2.751,2.751-5.045,5.907-6.878,9.468c-1.836,3.561-3.184,7.282-4.046,11.167h54.54
		C273.699,135.718,273.725,134.613,273.781,133.586z"/>
	<path d="M299.757,100.976h11.652l15.213,32.854l28.808-32.854h12.3l-36.737,40.46l22.172,43.05h-11.652l-17.803-36.414
		l-32.045,36.414h-11.976l39.65-44.021L299.757,100.976z"/>
	<path d="M385.855,100.976l5.341-25.248h10.195l-5.341,25.248h16.67l-1.618,8.577h-16.993l-11.491,53.569
		c-0.433,1.942-0.729,3.427-0.89,4.451c-0.162,1.026-0.243,2.185-0.243,3.479c0,1.512,0.404,2.859,1.214,4.046
		c0.81,1.188,2.185,1.78,4.127,1.78c3.99,0,7.983-0.324,11.977-0.971l-1.78,8.739c-1.728,0.215-3.454,0.377-5.179,0.485
		c-1.728,0.106-3.455,0.162-5.18,0.162c-1.941,0-3.831-0.137-5.664-0.405c-1.836-0.271-3.479-0.834-4.937-1.699
		c-1.456-0.862-2.617-2.076-3.479-3.642c-0.864-1.562-1.295-3.585-1.295-6.068c0-0.862,0.081-2.049,0.243-3.561
		c0.162-1.51,0.458-3.182,0.89-5.018l11.491-55.35h-15.052l1.942-8.577H385.855z"/>
</g>
</svg>
