<?xml version="1.0" encoding="utf-8"?>


<!-- The icon can be used freely in both personal and commercial projects with no attribution required, but always appreciated.
You may NOT sub-license, resell, rent, redistribute or otherwise transfer the icon without express written permission from iconmonstr.com -->


<!DOCTYPE svg PUBLIC "-//W3C//DTD SVG 1.1//EN" "http://www.w3.org/Graphics/SVG/1.1/DTD/svg11.dtd">

<svg version="1.1" xmlns="http://www.w3.org/2000/svg" xmlns:xlink="http://www.w3.org/1999/xlink" x="0px" y="0px"

	 width="512px" height="512px" viewBox="0 0 512 512" enable-background="new 0 0 512 512" xml:space="preserve">

<path id="github-2-icon" d="M461.633,250.645l0.367-3.819c-22.896-2.221-45.667-2.419-67.79-0.73

	c3.557-11.347,5.43-24.164,5.295-38.739c-0.292-30.965-10.616-55.081-26.843-75.096c3.116-18.852,0.769-37.702-5.111-56.561

	c-23.187,1.898-44.053,9.493-62.634,22.686c-34.725-7.044-69.447-7.493-104.172,0c-21.673-14.627-42.956-21.802-63.909-22.686

	c-6.21,20.765-7.169,41.233-1.917,61.357c-18.28,19.397-25.268,42.944-24.925,69.019c0.196,14.927,2.496,28.209,6.738,39.952

	c-21.796-1.599-44.201-1.386-66.732,0.798l0.367,3.819c22.947-2.228,45.76-2.411,67.919-0.678c0.814,1.974,1.633,3.939,2.567,5.815

	c-24.009-0.633-45.618,1.453-65.854,6.43l0.914,3.723c20.538-5.048,42.54-7.081,67.107-6.254

	c16.246,28.864,47.52,45.824,93.063,51.205c-10.581,8.594-16.269,18.731-17.735,30.201c0,0-4.787,0-24.121,0

	c-32.394,0-41.226-41.304-74.779-37.229C132,320,125.5,371.599,177.587,371.599c17.506,0,21.226,0,21.881,0v47.296

	c0.234,7.643-3.093,12.754-8.469,16.297c18.654,1.884,32.674-7.43,32.674-18.854s0-56.948,0-62.518s5.833-6,5.833-6v72.992

	c0.245,7.265-3.284,11.392-7.031,15.339c16.434,0.654,31.892-2.629,32.592-16.615c0,0,0-66.345,0-69.857s5.756-3.599,5.756,0

	s0,66.58,0,66.58c0.169,11.8,10.361,21.367,31.953,19.893c-5.776-4.65-7.549-9.35-7.549-16.15s0-72.181,0-72.181s5.95-0.306,5.95,6

	s0,50.331,0,60.881c0,13.55,16.267,19.14,34.829,18.615c-6.081-4.558-10.196-9.991-10.223-17.256v-73.217

	c-0.629-10.762-5.003-20.906-13.582-30.358c41.63-6.392,71.637-23.011,86.578-52.796c24.647-0.847,46.715,1.183,67.307,6.246

	l0.914-3.723c-20.394-5.014-42.181-7.096-66.416-6.415c0.839-1.891,1.67-3.789,2.389-5.785

	C415.363,248.215,438.431,248.391,461.633,250.645z M114,310.023c-1.023,0-1.853-0.588-1.853-1.313c0-0.728,0.83-1.315,1.853-1.315

	c1.024,0,1.854,0.588,1.854,1.315C115.854,309.436,115.024,310.023,114,310.023z M119.833,314.003c-1.137,0-2.06-0.653-2.06-1.46

	s0.923-1.462,2.06-1.462s2.059,0.655,2.059,1.462S120.97,314.003,119.833,314.003z M125.75,319.172

	c-1.333,0-2.415-0.766-2.415-1.712s1.082-1.714,2.415-1.714c1.333,0,2.416,0.768,2.416,1.714S127.083,319.172,125.75,319.172z

	 M131.5,325.379c-1.56,0-2.825-0.896-2.825-2.003s1.265-2.005,2.825-2.005s2.825,0.898,2.825,2.005S133.06,325.379,131.5,325.379z

	 M137.833,332.394c-1.733,0-3.139-0.996-3.139-2.226s1.406-2.228,3.139-2.228s3.139,0.998,3.139,2.228

	S139.566,332.394,137.833,332.394z M145.167,339.517c-1.926,0-3.488-1.107-3.488-2.474s1.562-2.476,3.488-2.476

	c1.925,0,3.487,1.109,3.487,2.476S147.092,339.517,145.167,339.517z M155.083,346.291c-2.14,0-3.875-1.231-3.875-2.749

	c0-1.519,1.735-2.751,3.875-2.751s3.875,1.232,3.875,2.751C158.958,345.06,157.223,346.291,155.083,346.291z M167.375,349.916

	c-2.14,0-3.875-1.231-3.875-2.749c0-1.519,1.735-2.751,3.875-2.751s3.875,1.232,3.875,2.751

	C171.25,348.685,169.515,349.916,167.375,349.916z M180.333,350.333c-2.14,0-3.875-1.231-3.875-2.749

	c0-1.519,1.735-2.751,3.875-2.751s3.875,1.232,3.875,2.751C184.208,349.102,182.473,350.333,180.333,350.333z M193.125,350.583

	c-2.14,0-3.875-1.231-3.875-2.749c0-1.519,1.735-2.751,3.875-2.751s3.875,1.232,3.875,2.751

	C197,349.352,195.265,350.583,193.125,350.583z"/>

</svg>
